<?xml version="1.0" encoding="UTF-8" standalone="no"?><!DOCTYPE svg PUBLIC "-//W3C//DTD SVG 1.1//EN" "http://www.w3.org/Graphics/SVG/1.1/DTD/svg11.dtd"><svg width="100%" height="100%" viewBox="0 0 398 201" version="1.1" xmlns="http://www.w3.org/2000/svg" xmlns:xlink="http://www.w3.org/1999/xlink" xml:space="preserve" style="fill-rule:evenodd;clip-rule:evenodd;stroke-linecap:round;stroke-linejoin:round;stroke-miterlimit:1.41421;"><rect x="11.535" y="0" width="386.038" height="31.488" style="fill:#33ccb1;fill-opacity:0.3;"/><rect x="11.535" y="147.894" width="386.038" height="31.488" style="fill:#33ccb1;fill-opacity:0.3;"/><rect x="11.535" y="113.76" width="386.038" height="31.488" style="fill:#33ccb1;fill-opacity:0.3;"/><rect x="11.535" y="79.44" width="386.038" height="31.488" style="fill:#33ccb1;fill-opacity:0.3;"/><rect x="11.535" y="45.12" width="386.038" height="31.488" style="fill:#33ccb1;fill-opacity:0.3;"/><rect x="14.56" y="7.958" width="77.754" height="16.329" style="fill:#d3b42c;"/><text x="37.315px" y="20.269px" style="font-family:'CMUSansSerif-Bold', 'CMU Sans Serif';font-weight:700;font-size:12px;fill:#ebebeb;">32-bit</text><rect x="16.092" y="121.445" width="39.134" height="16.329" style="fill:#d3b42c;"/><text x="22.837px" y="133.755px" style="font-family:'CMUSansSerif-Bold', 'CMU Sans Serif';font-weight:700;font-size:12px;fill:#ebebeb;">8-bit</text><rect x="65.688" y="121.445" width="39.134" height="16.329" style="fill:#d3b42c;"/><text x="72.434px" y="133.755px" style="font-family:'CMUSansSerif-Bold', 'CMU Sans Serif';font-weight:700;font-size:12px;fill:#ebebeb;">8-bit</text><rect x="116.598" y="121.445" width="39.134" height="16.329" style="fill:#d3b42c;"/><text x="123.343px" y="133.755px" style="font-family:'CMUSansSerif-Bold', 'CMU Sans Serif';font-weight:700;font-size:12px;fill:#ebebeb;">8-bit</text><rect x="167.094" y="121.445" width="39.134" height="16.329" style="fill:#d3b42c;"/><text x="173.839px" y="133.755px" style="font-family:'CMUSansSerif-Bold', 'CMU Sans Serif';font-weight:700;font-size:12px;fill:#ebebeb;">8-bit</text><rect x="254.263" y="121.445" width="39.134" height="16.329" style="fill:#d3b42c;"/><text x="261.009px" y="133.755px" style="font-family:'CMUSansSerif-Bold', 'CMU Sans Serif';font-weight:700;font-size:12px;fill:#ebebeb;">8-bit</text><rect x="98.021" y="7.958" width="77.754" height="16.329" style="fill:#d3b42c;"/><text x="120.776px" y="20.269px" style="font-family:'CMUSansSerif-Bold', 'CMU Sans Serif';font-weight:700;font-size:12px;fill:#ebebeb;">32-bit</text><rect x="213.925" y="7.958" width="77.754" height="16.329" style="fill:#d3b42c;"/><text x="236.68px" y="20.269px" style="font-family:'CMUSansSerif-Bold', 'CMU Sans Serif';font-weight:700;font-size:12px;fill:#ebebeb;">32-bit</text><circle cx="184.312" cy="16.381" r="2.749" style="fill:#d3b42c;"/><circle cx="194.465" cy="16.381" r="2.749" style="fill:#d3b42c;"/><circle cx="204.53" cy="16.381" r="2.749" style="fill:#d3b42c;"/><circle cx="221.291" cy="129.787" r="2.749" style="fill:#d3b42c;"/><circle cx="231.444" cy="129.787" r="2.749" style="fill:#d3b42c;"/><circle cx="241.509" cy="129.787" r="2.749" style="fill:#d3b42c;"/><rect x="16.092" y="154.677" width="39.134" height="16.329" style="fill:#d3b42c;"/><text x="22.837px" y="166.987px" style="font-family:'CMUSansSerif-Bold', 'CMU Sans Serif';font-weight:700;font-size:12px;fill:#ebebeb;">8-bit</text><rect x="65.688" y="154.677" width="39.134" height="16.329" style="fill:#d3b42c;"/><text x="72.434px" y="166.987px" style="font-family:'CMUSansSerif-Bold', 'CMU Sans Serif';font-weight:700;font-size:12px;fill:#ebebeb;">8-bit</text><rect x="116.598" y="154.677" width="39.134" height="16.329" style="fill:#d3b42c;"/><text x="123.343px" y="166.987px" style="font-family:'CMUSansSerif-Bold', 'CMU Sans Serif';font-weight:700;font-size:12px;fill:#ebebeb;">8-bit</text><rect x="167.094" y="154.677" width="39.134" height="16.329" style="fill:#d3b42c;"/><text x="173.839px" y="166.987px" style="font-family:'CMUSansSerif-Bold', 'CMU Sans Serif';font-weight:700;font-size:12px;fill:#ebebeb;">8-bit</text><rect x="254.263" y="154.677" width="39.134" height="16.329" style="fill:#d3b42c;"/><text x="261.009px" y="166.987px" style="font-family:'CMUSansSerif-Bold', 'CMU Sans Serif';font-weight:700;font-size:12px;fill:#ebebeb;">8-bit</text><circle cx="221.291" cy="163.019" r="2.749" style="fill:#d3b42c;"/><circle cx="231.444" cy="163.019" r="2.749" style="fill:#d3b42c;"/><circle cx="241.509" cy="163.019" r="2.749" style="fill:#d3b42c;"/><rect x="15.494" y="53.293" width="77.754" height="16.329" style="fill:#003864;"/><text x="38.249px" y="65.604px" style="font-family:'CMUSansSerif-Bold', 'CMU Sans Serif';font-weight:700;font-size:12px;fill:#ebebeb;">32-bit</text><rect x="98.955" y="53.293" width="77.754" height="16.329" style="fill:#003864;"/><text x="121.71px" y="65.604px" style="font-family:'CMUSansSerif-Bold', 'CMU Sans Serif';font-weight:700;font-size:12px;fill:#ebebeb;">32-bit</text><rect x="214.859" y="53.293" width="77.754" height="16.329" style="fill:#003864;"/><text x="237.614px" y="65.604px" style="font-family:'CMUSansSerif-Bold', 'CMU Sans Serif';font-weight:700;font-size:12px;fill:#ebebeb;">32-bit</text><circle cx="185.246" cy="61.716" r="2.749" style="fill:#003864;"/><circle cx="195.399" cy="61.716" r="2.749" style="fill:#003864;"/><circle cx="205.464" cy="61.716" r="2.749" style="fill:#003864;"/><rect x="15.494" y="86.366" width="77.754" height="16.329" style="fill:#003864;"/><text x="38.249px" y="98.676px" style="font-family:'CMUSansSerif-Bold', 'CMU Sans Serif';font-weight:700;font-size:12px;fill:#ebebeb;">32-bit</text><rect x="98.955" y="86.366" width="77.754" height="16.329" style="fill:#003864;"/><text x="121.71px" y="98.676px" style="font-family:'CMUSansSerif-Bold', 'CMU Sans Serif';font-weight:700;font-size:12px;fill:#ebebeb;">32-bit</text><rect x="214.859" y="86.366" width="77.754" height="16.329" style="fill:#003864;"/><text x="237.614px" y="98.676px" style="font-family:'CMUSansSerif-Bold', 'CMU Sans Serif';font-weight:700;font-size:12px;fill:#ebebeb;">32-bit</text><circle cx="185.246" cy="94.788" r="2.749" style="fill:#003864;"/><circle cx="195.399" cy="94.788" r="2.749" style="fill:#003864;"/><circle cx="205.464" cy="94.788" r="2.749" style="fill:#003864;"/><path d="M307.98,58.272c0,-11.197 -9.09,-20.287 -20.286,-20.287l-264.809,0c-11.197,0 -20.287,9.09 -20.287,20.287l0,108.281c0,11.197 9.09,20.287 20.287,20.287l264.809,0c11.196,0 20.286,-9.09 20.286,-20.287l0,-108.281Z" style="fill:none;stroke-width:3px;stroke-dasharray:3,4.5,0,0;stroke:#8b003d;"/><text x="318.593px" y="59.107px" style="font-family:'Menlo-Bold', 'Menlo', monospace;font-weight:700;font-size:12px;fill:#000;">codebook</text><text x="318.593px" y="69.641px" style="font-family:'Menlo-Regular', 'Menlo', monospace;font-size:10px;fill:#000;">16 || 256</text><text x="318.593px" y="13.987px" style="font-family:'Menlo-Bold', 'Menlo', monospace;font-weight:700;font-size:12px;fill:#000;">nz_num</text><text x="318.593px" y="24.521px" style="font-family:'Menlo-Regular', 'Menlo', monospace;font-size:10px;fill:#000;">#layers</text><text x="318.593px" y="92.729px" style="font-family:'Menlo-Bold', 'Menlo', monospace;font-weight:700;font-size:12px;fill:#000;">bias</text><text x="318.593px" y="103.001px" style="font-family:'Menlo-Regular', 'Menlo', monospace;font-size:10px;fill:#000;">dp. layers</text><text x="318.593px" y="125.849px" style="font-family:'Menlo-Bold', 'Menlo', monospace;font-weight:700;font-size:12px;fill:#000;">spm_stream</text><text x="318.593px" y="138.041px" style="font-family:'Menlo-Regular', 'Menlo', monospace;font-size:10px;fill:#000;">num_nz / 2</text><text x="318.593px" y="160.943px" style="font-family:'Menlo-Bold', 'Menlo', monospace;font-weight:700;font-size:12px;fill:#000;">ind_stream</text><text x="318.593px" y="173.135px" style="font-family:'Menlo-Regular', 'Menlo', monospace;font-size:10px;fill:#000;">num_nz / 2</text><text x="19.328px" y="200.531px" style="font-family:'Menlo-Bold', 'Menlo', monospace;font-weight:700;font-size:10px;fill:#8b003d;">FOR EACH LAYER</text></svg>